<svg width="43" height="32" viewBox="0 0 43 32" fill="none" xmlns="http://www.w3.org/2000/svg">
<rect width="43" height="32" rx="5" fill="white"/>
<g clip-path="url(#clip0_30_102)">
<path d="M21.3334 26.6668C27.2244 26.6668 32 21.8912 32 16.0002C32 10.1091 27.2244 5.3335 21.3334 5.3335C15.4423 5.3335 10.6667 10.1091 10.6667 16.0002C10.6667 21.8912 15.4423 26.6668 21.3334 26.6668Z" fill="#231F20"/>
<path fill-rule="evenodd" clip-rule="evenodd" d="M17.9118 17.6277C17.5576 17.9717 17.0776 18.1816 16.547 18.1741C16.1971 18.1684 15.8556 18.0659 15.5603 17.878L14.8513 19.0089C15.3367 19.3166 15.9111 19.4985 16.5285 19.5081C16.9566 19.5153 17.3819 19.4374 17.7796 19.2788C18.1773 19.1203 18.5395 18.8842 18.8451 18.5843L17.9118 17.6277ZM14.6783 16.464C14.6361 16.058 14.725 15.6493 14.9319 15.2975C15.1389 14.9458 15.4531 14.6695 15.8284 14.5093C16.2038 14.3491 16.6206 14.3133 17.0177 14.4071C17.4149 14.5009 17.7716 14.7195 18.0355 15.0308L14.6783 16.464ZM16.627 13.0178C16.2008 13.0111 15.7775 13.0885 15.3812 13.2455C14.985 13.4025 14.6236 13.6362 14.3177 13.933C14.0118 14.2298 13.7674 14.584 13.5985 14.9753C13.4296 15.3667 13.3395 15.7875 13.3333 16.2137C13.3224 16.8845 13.5173 17.5129 13.8578 18.0346L19.7354 15.5231C19.57 14.819 19.1743 14.1902 18.6109 13.7366C18.0475 13.283 17.3488 13.0305 16.6256 13.0192L16.627 13.0178ZM21.5795 11.5559V17.8219L22.6667 18.2718L22.1525 19.5081L21.0776 19.0616C20.8616 18.9672 20.6776 18.8124 20.5477 18.6158C20.428 18.4311 20.3398 18.1788 20.3398 17.8383V11.5559H21.5795Z" fill="#FEFEFE"/>
<mask id="mask0_30_102" style="mask-type:alpha" maskUnits="userSpaceOnUse" x="25" y="13" width="5" height="3">
<path d="M25.0756 13.0166H29.2855V15.8809H25.0756V13.0166Z" fill="white"/>
</mask>
<g mask="url(#mask0_30_102)">
<path fill-rule="evenodd" clip-rule="evenodd" d="M25.4988 14.4501C25.7552 14.3645 26.0269 14.3342 26.2959 14.3614C26.5649 14.3885 26.8251 14.4725 27.0592 14.6077C27.2933 14.743 27.496 14.9263 27.654 15.1458C27.8119 15.3652 27.9215 15.6156 27.9754 15.8806L29.2848 15.6139C29.1931 15.1637 29.0068 14.738 28.7384 14.3651C28.4699 13.9922 28.1254 13.6805 27.7275 13.4507C27.3296 13.2209 26.8875 13.0781 26.4303 13.0319C25.9732 12.9856 25.5114 13.037 25.0756 13.1825L25.4988 14.4501Z" fill="#00A4DF"/>
</g>
<path fill-rule="evenodd" clip-rule="evenodd" d="M23.9542 18.6936L24.839 17.6932C24.6361 17.5141 24.4738 17.2938 24.3627 17.0471C24.2517 16.8003 24.1944 16.5327 24.1949 16.2621C24.1949 15.6932 24.4438 15.1825 24.8383 14.8331L23.9535 13.832C23.2821 14.4269 22.8588 15.2953 22.8588 16.2621C22.8588 17.2303 23.2828 18.0987 23.9542 18.6936Z" fill="#FFF100"/>
<path fill-rule="evenodd" clip-rule="evenodd" d="M27.9755 16.6458C27.9211 16.9104 27.8113 17.1605 27.6531 17.3795C27.495 17.5986 27.2923 17.7816 27.0582 17.9165C26.8242 18.0515 26.5642 18.1352 26.2954 18.1623C26.0266 18.1893 25.7551 18.1591 25.4989 18.0735L25.075 19.3412C25.5105 19.4867 25.972 19.5382 26.4289 19.4923C26.8858 19.4463 27.3278 19.304 27.7257 19.0746C28.1235 18.8453 28.4682 18.5342 28.737 18.1618C29.0058 17.7895 29.1925 17.3643 29.2849 16.9145L27.9755 16.6458Z" fill="#EE4123"/>
</g>
<defs>
<clipPath id="clip0_30_102">
<rect width="22" height="22" fill="white" transform="translate(10 5)"/>
</clipPath>
</defs>
</svg>
