<svg width="38" height="38" viewBox="0 0 38 38" fill="none" xmlns="http://www.w3.org/2000/svg">
<rect width="38" height="38" rx="19" fill="white"/>
<path d="M28.3017 28.3018H24.5972V22.5006C24.5972 21.1171 24.5726 19.3369 22.6704 19.3369C20.7412 19.3369 20.4455 20.8436 20.4455 22.4008V28.3018H16.7423V16.3716H20.2989V18.0015H20.3482C21.0738 16.7622 22.4216 16.0218 23.8568 16.0747C27.6118 16.0747 28.3029 18.5448 28.3029 21.7565L28.3017 28.3018ZM12.5623 14.7405C11.3747 14.7405 10.4125 13.7784 10.4125 12.5908C10.4125 11.4032 11.3747 10.441 12.5623 10.441C13.7499 10.441 14.712 11.4032 14.712 12.5908C14.712 13.7784 13.7499 14.7405 12.5623 14.7405ZM14.4139 28.3018H10.7057V16.3716H14.4139V28.3018ZM30.1484 7.0014H8.84423C7.83773 6.99031 7.01232 7.79724 7 8.80375V30.1954C7.01232 31.2031 7.83773 32.01 8.84423 31.9989H30.1484C31.1573 32.0113 31.9864 31.2043 32 30.1954V8.80251C31.9852 7.79355 31.1561 6.98662 30.1484 7.00017" fill="#1D1D1F"/>
</svg>
