<svg width="43" height="32" viewBox="0 0 43 32" fill="none" xmlns="http://www.w3.org/2000/svg">
<rect width="43" height="32" rx="5" fill="white"/>
<g clip-path="url(#clip0_30_81)">
<path d="M25.6595 24.1566H16.4395V7.58691H25.6597L25.6595 24.1566Z" fill="#FF5F00"/>
<path d="M17.0239 15.8715C17.0239 12.5103 18.5977 9.51617 21.0484 7.58661C19.1934 6.12389 16.899 5.33002 14.5366 5.33351C8.71726 5.33351 4 10.0515 4 15.8715C4 21.6915 8.71726 26.4095 14.5366 26.4095C16.899 26.413 19.1935 25.6191 21.0486 24.1564C18.5981 22.2271 17.0239 19.2328 17.0239 15.8715Z" fill="#EB001B"/>
<path d="M38.0985 15.872C38.0985 21.692 33.3812 26.41 27.5618 26.41C25.1991 26.4134 22.9044 25.6196 21.049 24.1569C23.5003 22.2273 25.0741 19.2333 25.0741 15.872C25.0741 12.5106 23.5003 9.51666 21.049 7.58711C22.9044 6.12443 25.199 5.33057 27.5616 5.334C33.381 5.334 38.0985 10.0519 38.0985 15.872Z" fill="#F79E1B"/>
</g>
<defs>
<clipPath id="clip0_30_81">
<rect width="35" height="22" fill="white" transform="translate(4 5)"/>
</clipPath>
</defs>
</svg>
