<svg width="38" height="38" viewBox="0 0 38 38" fill="none" xmlns="http://www.w3.org/2000/svg">
<rect width="38" height="38" rx="19" fill="white"/>
<path d="M31.4771 12.75C31.1896 11.6677 30.3427 10.8146 29.2667 10.525C27.3177 10 19.5 10 19.5 10C19.5 10 11.6823 10 9.73229 10.525C8.65729 10.8146 7.81042 11.6667 7.52292 12.75C7 14.7125 7 18.8063 7 18.8063C7 18.8063 7 22.9 7.52292 24.8625C7.81042 25.9448 8.65729 26.7979 9.73333 27.0875C11.6823 27.6125 19.5 27.6125 19.5 27.6125C19.5 27.6125 27.3177 27.6125 29.2677 27.0875C30.3427 26.7979 31.1896 25.9458 31.4781 24.8625C32 22.9 32 18.8063 32 18.8063C32 18.8063 32 14.7125 31.4771 12.75ZM16.9437 22.524V15.0885L23.4771 18.8063L16.9437 22.524Z" fill="#1D1D1F"/>
</svg>
