<svg width="32" height="32" viewBox="0 0 32 32" fill="none" xmlns="http://www.w3.org/2000/svg">
<g clip-path="url(#clip0_19_32)">
<path d="M22 4C19.68 4 17.4533 5.08 16 6.78667C14.5467 5.08 12.32 4 10 4C5.89334 4 2.66667 7.22667 2.66667 11.3333C2.66667 16.3733 7.20001 20.48 14.0667 26.72L16 28.4667L17.9333 26.7067C24.8 20.48 29.3333 16.3733 29.3333 11.3333C29.3333 7.22667 26.1067 4 22 4ZM16.1333 24.7333L16 24.8667L15.8667 24.7333C9.52 18.9867 5.33334 15.1867 5.33334 11.3333C5.33334 8.66667 7.33334 6.66667 10 6.66667C12.0533 6.66667 14.0533 7.98667 14.76 9.81333H17.2533C17.9467 7.98667 19.9467 6.66667 22 6.66667C24.6667 6.66667 26.6667 8.66667 26.6667 11.3333C26.6667 15.1867 22.48 18.9867 16.1333 24.7333Z" fill="black"/>
</g>
<defs>
<clipPath id="clip0_19_32">
<rect width="32" height="32" fill="white"/>
</clipPath>
</defs>
</svg>
