<svg width="38" height="38" viewBox="0 0 38 38" fill="none" xmlns="http://www.w3.org/2000/svg">
<rect width="38" height="38" rx="19" fill="white"/>
<path d="M19.5 8.25208C22.8375 8.25208 23.2333 8.26458 24.551 8.325C25.9135 8.3875 27.3167 8.69792 28.3094 9.69062C29.3115 10.6927 29.6125 12.0823 29.675 13.449C29.7354 14.7667 29.7479 15.1625 29.7479 18.5C29.7479 21.8375 29.7354 22.2333 29.675 23.551C29.6135 24.9062 29.2958 26.3229 28.3094 27.3094C27.3073 28.3115 25.9188 28.6125 24.551 28.675C23.2333 28.7354 22.8375 28.7479 19.5 28.7479C16.1625 28.7479 15.7667 28.7354 14.449 28.675C13.1042 28.6135 11.6687 28.2885 10.6906 27.3094C9.69375 26.3125 9.3875 24.9094 9.325 23.551C9.26458 22.2333 9.25208 21.8375 9.25208 18.5C9.25208 15.1625 9.26458 14.7667 9.325 13.449C9.38646 12.099 9.70729 10.674 10.6906 9.69062C11.6906 8.69062 13.0854 8.3875 14.449 8.325C15.7667 8.26458 16.1625 8.25208 19.5 8.25208ZM19.5 6C16.1052 6 15.6792 6.01458 14.3458 6.075C12.4135 6.16354 10.4948 6.70104 9.09792 8.09792C7.69583 9.5 7.16354 11.4146 7.075 13.3458C7.01458 14.6792 7 15.1052 7 18.5C7 21.8948 7.01458 22.3208 7.075 23.6542C7.16354 25.5844 7.70312 27.5083 9.09792 28.9021C10.499 30.3031 12.4167 30.8365 14.3458 30.925C15.6792 30.9854 16.1052 31 19.5 31C22.8948 31 23.3208 30.9854 24.6542 30.925C26.5854 30.8365 28.5062 30.2979 29.9021 28.9021C31.3052 27.499 31.8365 25.5854 31.925 23.6542C31.9854 22.3208 32 21.8948 32 18.5C32 15.1052 31.9854 14.6792 31.925 13.3458C31.8365 11.4135 31.2979 9.49375 29.9021 8.09792C28.5031 6.69896 26.5802 6.1625 24.6542 6.075C23.3208 6.01458 22.8948 6 19.5 6Z" fill="#1D1D1F"/>
<path d="M19.5 12.0813C15.9553 12.0813 13.0813 14.9553 13.0813 18.5C13.0813 22.0448 15.9553 24.9188 19.5 24.9188C23.0448 24.9188 25.9188 22.0448 25.9188 18.5C25.9188 14.9553 23.0448 12.0813 19.5 12.0813ZM19.5 22.6667C17.199 22.6667 15.3334 20.8011 15.3334 18.5C15.3334 16.199 17.199 14.3334 19.5 14.3334C21.8011 14.3334 23.6667 16.199 23.6667 18.5C23.6667 20.8011 21.8011 22.6667 19.5 22.6667Z" fill="#1D1D1F"/>
<path d="M26.1729 13.3271C27.0013 13.3271 27.6729 12.6556 27.6729 11.8271C27.6729 10.9987 27.0013 10.3271 26.1729 10.3271C25.3445 10.3271 24.6729 10.9987 24.6729 11.8271C24.6729 12.6556 25.3445 13.3271 26.1729 13.3271Z" fill="#1D1D1F"/>
</svg>
