<svg width="43" height="32" viewBox="0 0 43 32" fill="none" xmlns="http://www.w3.org/2000/svg">
<rect width="43" height="32" rx="5" fill="white"/>
<g clip-path="url(#clip0_30_98)">
<path d="M27.1549 21.83C26.7303 21.831 26.3098 21.748 25.9175 21.5856C25.5253 21.4232 25.1691 21.1846 24.8695 20.8838L21.5698 17.584C21.4531 17.4724 21.2979 17.4102 21.1364 17.4102C20.9749 17.4102 20.8197 17.4724 20.703 17.584L17.3914 20.8942C17.0919 21.1951 16.7357 21.4336 16.3434 21.596C15.9512 21.7584 15.5306 21.8415 15.1061 21.8404H14.4581L18.6386 26.0209C19.2656 26.6469 20.1155 26.9986 21.0016 26.9986C21.8877 26.9986 22.7375 26.6469 23.3646 26.0209L27.5555 21.83H27.1549Z" fill="#32BCAD"/>
<path d="M15.1063 10.1589C15.5309 10.1576 15.9514 10.2406 16.3437 10.403C16.736 10.5655 17.0922 10.8041 17.3916 11.105L20.7032 14.4146C20.8183 14.5293 20.9741 14.5937 21.1366 14.5937C21.2991 14.5937 21.4549 14.5293 21.57 14.4146L24.8697 11.1148C25.1692 10.8138 25.5253 10.5752 25.9176 10.4128C26.3099 10.2504 26.7305 10.1674 27.155 10.1686H27.5522L23.3613 5.97772C22.7342 5.35165 21.8844 5 20.9983 5C20.1122 5 19.2623 5.35165 18.6353 5.97772L14.4548 10.1582L15.1063 10.1589Z" fill="#32BCAD"/>
<path d="M31.0184 13.6371L28.4858 11.1045C28.4288 11.1282 28.3678 11.1407 28.306 11.1414H27.155C26.5544 11.142 25.9784 11.3799 25.5525 11.8033L22.2534 15.1031C21.9562 15.3999 21.5534 15.5666 21.1334 15.5666C20.7134 15.5666 20.3106 15.3999 20.0134 15.1031L16.7018 11.7915C16.2768 11.3687 15.7022 11.1306 15.1028 11.1289H13.6919C13.6336 11.1279 13.576 11.1163 13.5219 11.0947L10.9781 13.6371C10.3518 14.2642 10 15.1143 10 16.0005C10 16.8868 10.3518 17.7368 10.9781 18.3639L13.5205 20.9063C13.5745 20.8844 13.6322 20.8726 13.6905 20.8714H15.1063C15.7056 20.8699 16.2802 20.6321 16.7053 20.2095L20.0169 16.8979C20.6154 16.3001 21.6584 16.2994 22.2569 16.8979L25.556 20.1977C25.9816 20.6216 26.5578 20.8598 27.1585 20.8603H28.3095C28.3714 20.8608 28.4327 20.8731 28.49 20.8965L31.0219 18.3646C31.6482 17.7375 32 16.8875 32 16.0012C32 15.115 31.6482 14.2649 31.0219 13.6378L31.0184 13.6371Z" fill="#32BCAD"/>
</g>
<defs>
<clipPath id="clip0_30_98">
<rect width="22" height="22" fill="white" transform="translate(10 5)"/>
</clipPath>
</defs>
</svg>
