<svg width="43" height="32" viewBox="0 0 43 32" fill="none" xmlns="http://www.w3.org/2000/svg">
<rect width="43" height="32" rx="5" fill="white"/>
<g clip-path="url(#clip0_30_89)">
<mask id="mask0_30_89" style="mask-type:luminance" maskUnits="userSpaceOnUse" x="1" y="8" width="40" height="16">
<path d="M41 8H1V24H41V8Z" fill="white"/>
</mask>
<g mask="url(#mask0_30_89)">
<path d="M18.7616 21.946H16.0147L17.7315 11.3953H20.4787L18.7616 21.946ZM13.7039 11.3953L11.0852 18.6521L10.7753 17.0894L9.85127 12.3453C9.85127 12.3453 9.73951 11.3953 8.54825 11.3953H4.21895L4.16815 11.574C4.16815 11.574 5.49206 11.8494 7.04146 12.7799L9.42794 21.9462H12.29L16.6602 11.3953H13.7039ZM35.3095 21.946H37.8317L35.6326 11.395H33.4245C32.4048 11.395 32.1565 12.1813 32.1565 12.1813L28.0597 21.946H30.9232L31.4958 20.3788H34.9877L35.3095 21.946ZM32.2869 18.2138L33.7301 14.2655L34.5421 18.2138H32.2869ZM28.2745 13.9325L28.6665 11.6668C28.6665 11.6668 27.4569 11.2068 26.1959 11.2068C24.8328 11.2068 21.5957 11.8026 21.5957 14.6996C21.5957 17.4253 25.395 17.4592 25.395 18.8909C25.395 20.3226 21.9871 20.0661 20.8625 19.1632L20.4541 21.5322C20.4541 21.5322 21.6806 22.128 23.5546 22.128C25.4291 22.128 28.257 21.1574 28.257 18.5158C28.257 15.7726 24.4236 15.5172 24.4236 14.3245C24.4238 13.1315 27.099 13.2848 28.2745 13.9325Z" fill="#2566AF"/>
<path d="M10.7756 17.0897L9.85128 12.345C9.85128 12.345 9.73952 11.395 8.54826 11.395H4.21895L4.16815 11.5737C4.16815 11.5737 6.24898 12.0049 8.24487 13.6206C10.1533 15.1649 10.7756 17.0897 10.7756 17.0897Z" fill="#E6A540"/>
</g>
</g>
<defs>
<clipPath id="clip0_30_89">
<rect width="40" height="16" fill="white" transform="translate(1 8)"/>
</clipPath>
</defs>
</svg>
